<svg width="17" height="18" viewBox="0 0 17 18" fill="none" xmlns="http://www.w3.org/2000/svg">
<path fill-rule="evenodd" clip-rule="evenodd" d="M8.05997 3.72794C5.44585 3.91094 3.382 6.08956 3.382 8.75022C3.382 11.5308 5.63612 13.7849 8.41672 13.7849C10.6444 13.7849 12.5346 12.3378 13.1979 10.3326C12.6874 10.5435 12.1279 10.6599 11.5417 10.6599C9.14465 10.6599 7.20144 8.71673 7.20144 6.31966C7.20144 5.34803 7.52097 4.45097 8.05997 3.72794ZM2.34033 8.75022C2.34033 5.39432 5.06082 2.67383 8.41672 2.67383C8.72895 2.67383 9.03601 2.69742 9.33613 2.74301C9.54374 2.77454 9.71211 2.92767 9.76314 3.13137C9.81417 3.33507 9.73788 3.54949 9.56965 3.67518C8.76341 4.27754 8.24311 5.23777 8.24311 6.31966C8.24311 8.14143 9.71995 9.61827 11.5417 9.61827C12.3294 9.61827 13.0513 9.34285 13.6185 8.88261C13.7815 8.75035 14.0079 8.72885 14.1929 8.82806C14.3778 8.92728 14.4852 9.12782 14.4651 9.33675C14.1697 12.4177 11.5749 14.8266 8.41672 14.8266C5.06082 14.8266 2.34033 12.1061 2.34033 8.75022Z" fill="#24272C"/>
</svg>
