<svg width="18" height="18" viewBox="0 0 18 18" fill="none" xmlns="http://www.w3.org/2000/svg">
<path d="M8.83344 1.53516C9.12109 1.53516 9.35427 1.76834 9.35427 2.05599V2.75043C9.35427 3.03808 9.12109 3.27127 8.83344 3.27127C8.54579 3.27127 8.31261 3.03808 8.31261 2.75043V2.05599C8.31261 1.76834 8.54579 1.53516 8.83344 1.53516Z" fill="#E9EAF0"/>
<path fill-rule="evenodd" clip-rule="evenodd" d="M4.84039 9.00043C4.84039 6.79513 6.62814 5.00738 8.83344 5.00738C11.0387 5.00738 12.8265 6.79513 12.8265 9.00043C12.8265 11.2057 11.0387 12.9935 8.83344 12.9935C6.62814 12.9935 4.84039 11.2057 4.84039 9.00043ZM8.83344 6.04905C7.20343 6.04905 5.88205 7.37043 5.88205 9.00043C5.88205 10.6304 7.20343 11.9518 8.83344 11.9518C10.4634 11.9518 11.7848 10.6304 11.7848 9.00043C11.7848 7.37043 10.4634 6.04905 8.83344 6.04905Z" fill="#E9EAF0"/>
<path d="M4.29127 3.7217C4.08787 3.5183 3.7581 3.5183 3.5547 3.7217C3.3513 3.9251 3.3513 4.25487 3.5547 4.45827L4.04575 4.94932C4.24915 5.15272 4.57892 5.15272 4.78232 4.94932C4.98572 4.74592 4.98572 4.41615 4.78232 4.21275L4.29127 3.7217Z" fill="#E9EAF0"/>
<path d="M16.2987 9.00043C16.2987 9.28808 16.0655 9.52127 15.7779 9.52127H15.0834C14.7958 9.52127 14.5626 9.28808 14.5626 9.00043C14.5626 8.71279 14.7958 8.4796 15.0834 8.4796H15.7779C16.0655 8.4796 16.2987 8.71279 16.2987 9.00043Z" fill="#E9EAF0"/>
<path d="M14.1122 4.45826C14.3156 4.25487 14.3156 3.92509 14.1122 3.7217C13.9088 3.5183 13.579 3.5183 13.3756 3.7217L12.8846 4.21274C12.6812 4.41614 12.6812 4.74591 12.8846 4.94931C13.088 5.15271 13.4177 5.15271 13.6211 4.94931L14.1122 4.45826Z" fill="#E9EAF0"/>
<path d="M8.83344 14.7296C9.12109 14.7296 9.35427 14.9628 9.35427 15.2504V15.9449C9.35427 16.2325 9.12109 16.4657 8.83344 16.4657C8.54579 16.4657 8.31261 16.2325 8.31261 15.9449V15.2504C8.31261 14.9628 8.54579 14.7296 8.83344 14.7296Z" fill="#E9EAF0"/>
<path d="M13.6212 13.0516C13.4178 12.8482 13.088 12.8482 12.8846 13.0516C12.6812 13.255 12.6812 13.5847 12.8846 13.7881L13.3757 14.2792C13.579 14.4826 13.9088 14.4826 14.1122 14.2792C14.3156 14.0758 14.3156 13.746 14.1122 13.5426L13.6212 13.0516Z" fill="#E9EAF0"/>
<path d="M3.10428 9.00043C3.10428 9.28808 2.87109 9.52127 2.58344 9.52127H1.889C1.60135 9.52127 1.36816 9.28808 1.36816 9.00043C1.36816 8.71279 1.60135 8.4796 1.889 8.4796H2.58344C2.87109 8.4796 3.10428 8.71279 3.10428 9.00043Z" fill="#E9EAF0"/>
<path d="M4.78227 13.7881C4.98567 13.5847 4.98567 13.255 4.78227 13.0516C4.57887 12.8482 4.2491 12.8482 4.0457 13.0516L3.55466 13.5426C3.35126 13.746 3.35126 14.0758 3.55466 14.2792C3.75805 14.4826 4.08783 14.4826 4.29123 14.2792L4.78227 13.7881Z" fill="#E9EAF0"/>
</svg>
